<?xml version="1.0" encoding="utf-8" ?>
<svg baseProfile="full" height="919" version="1.1" width="2048" xmlns="http://www.w3.org/2000/svg" xmlns:ev="http://www.w3.org/2001/xml-events" xmlns:xlink="http://www.w3.org/1999/xlink"><defs /><path d="M 1218,756 L 1217,757 L 1215,757 L 1214,758 L 1214,761 L 1215,762 L 1216,762 L 1217,763 L 1218,763 L 1220,765 L 1220,819 L 1219,820 L 1219,822 L 1216,825 L 1215,825 L 1215,828 L 1216,829 L 1246,829 L 1246,826 L 1244,824 L 1243,824 L 1242,823 L 1240,823 L 1239,822 L 1238,822 L 1237,821 L 1237,805 L 1236,804 L 1238,802 L 1243,802 L 1250,809 L 1250,810 L 1255,815 L 1255,816 L 1268,829 L 1270,829 L 1271,830 L 1342,830 L 1343,829 L 1344,829 L 1345,828 L 1345,827 L 1346,826 L 1346,814 L 1345,813 L 1343,813 L 1336,820 L 1335,820 L 1334,821 L 1332,821 L 1331,822 L 1328,822 L 1327,821 L 1324,821 L 1323,820 L 1321,820 L 1316,815 L 1316,807 L 1317,806 L 1317,798 L 1319,796 L 1327,796 L 1328,797 L 1329,797 L 1330,798 L 1331,798 L 1335,802 L 1340,802 L 1341,801 L 1342,801 L 1342,784 L 1335,784 L 1334,785 L 1318,785 L 1317,784 L 1317,767 L 1318,766 L 1334,766 L 1335,767 L 1335,768 L 1336,769 L 1336,773 L 1337,774 L 1340,774 L 1341,773 L 1343,773 L 1343,756 L 1297,756 L 1296,757 L 1296,759 L 1295,760 L 1295,762 L 1296,763 L 1296,764 L 1299,767 L 1299,821 L 1297,823 L 1296,823 L 1295,824 L 1289,824 L 1288,823 L 1286,823 L 1285,822 L 1284,822 L 1283,821 L 1282,821 L 1269,808 L 1269,807 L 1265,803 L 1265,802 L 1262,799 L 1262,798 L 1261,797 L 1261,796 L 1263,794 L 1264,794 L 1268,790 L 1268,789 L 1269,788 L 1269,787 L 1270,786 L 1270,784 L 1271,783 L 1271,779 L 1272,778 L 1272,770 L 1271,769 L 1271,767 L 1270,766 L 1270,765 L 1264,759 L 1263,759 L 1262,758 L 1260,758 L 1259,757 L 1256,757 L 1255,756 Z" fill="black" /><path d="M 1123,756 L 1122,757 L 1122,761 L 1123,762 L 1123,763 L 1127,767 L 1127,784 L 1128,785 L 1128,815 L 1129,816 L 1129,817 L 1130,818 L 1130,819 L 1131,820 L 1131,821 L 1137,827 L 1138,827 L 1140,829 L 1142,829 L 1143,830 L 1147,830 L 1148,831 L 1169,831 L 1170,830 L 1175,830 L 1176,829 L 1178,829 L 1179,828 L 1181,828 L 1182,827 L 1183,827 L 1184,826 L 1185,826 L 1193,818 L 1193,817 L 1196,814 L 1196,790 L 1197,789 L 1197,768 L 1200,765 L 1201,765 L 1202,764 L 1204,764 L 1205,763 L 1207,763 L 1207,761 L 1205,759 L 1205,758 L 1204,757 L 1202,757 L 1201,756 L 1176,756 L 1175,757 L 1175,763 L 1176,763 L 1178,765 L 1179,765 L 1180,766 L 1180,812 L 1179,813 L 1179,815 L 1174,820 L 1173,820 L 1172,821 L 1169,821 L 1168,822 L 1159,822 L 1158,821 L 1156,821 L 1155,820 L 1154,820 L 1147,813 L 1147,811 L 1146,810 L 1146,807 L 1145,806 L 1145,769 L 1148,766 L 1148,764 L 1149,763 L 1149,757 L 1145,757 L 1144,756 Z" fill="black" /><path d="M 1042,756 L 1041,757 L 1041,759 L 1040,760 L 1040,765 L 1041,766 L 1069,766 L 1070,767 L 1070,818 L 1068,820 L 1068,823 L 1067,824 L 1066,824 L 1065,825 L 1062,825 L 1061,826 L 1061,828 L 1062,829 L 1063,829 L 1064,830 L 1081,830 L 1082,829 L 1087,829 L 1088,828 L 1089,828 L 1090,827 L 1090,813 L 1089,812 L 1089,774 L 1088,773 L 1088,768 L 1090,766 L 1092,766 L 1093,765 L 1098,765 L 1099,766 L 1100,766 L 1101,767 L 1106,767 L 1107,768 L 1110,768 L 1111,767 L 1115,767 L 1118,764 L 1118,757 L 1117,757 L 1116,756 Z" fill="black" /><path d="M 1001,756 L 1001,762 L 1002,763 L 1003,763 L 1004,764 L 1005,764 L 1008,767 L 1008,777 L 1009,778 L 1009,817 L 1008,818 L 1008,822 L 1005,825 L 1003,825 L 1002,826 L 1002,827 L 1003,828 L 1003,829 L 1004,829 L 1005,830 L 1037,830 L 1038,829 L 1038,826 L 1037,825 L 1035,825 L 1034,824 L 1030,824 L 1029,823 L 1029,814 L 1028,813 L 1028,766 L 1030,764 L 1030,763 L 1031,762 L 1031,761 L 1032,760 L 1032,758 L 1030,756 Z" fill="black" /><path d="M 735,756 L 734,757 L 733,757 L 733,763 L 734,764 L 734,765 L 735,765 L 737,767 L 738,767 L 739,768 L 739,810 L 740,811 L 740,815 L 741,816 L 741,818 L 742,819 L 742,820 L 745,823 L 745,824 L 748,827 L 749,827 L 751,829 L 752,829 L 753,830 L 755,830 L 756,831 L 758,831 L 759,832 L 782,832 L 783,831 L 788,831 L 789,830 L 792,830 L 793,829 L 794,829 L 795,828 L 796,828 L 797,827 L 798,827 L 804,821 L 804,820 L 807,817 L 807,812 L 808,811 L 808,793 L 809,792 L 809,770 L 813,766 L 813,765 L 817,761 L 817,757 L 811,757 L 810,756 L 788,756 L 787,757 L 787,761 L 788,762 L 788,763 L 790,765 L 791,765 L 792,766 L 792,811 L 791,812 L 791,813 L 784,820 L 783,820 L 782,821 L 780,821 L 779,822 L 772,822 L 771,821 L 769,821 L 768,820 L 767,820 L 765,818 L 764,818 L 761,815 L 761,814 L 759,812 L 759,800 L 758,799 L 758,776 L 759,775 L 759,773 L 758,772 L 758,769 L 760,767 L 761,767 L 762,766 L 762,765 L 763,764 L 763,763 L 764,762 L 764,759 L 762,757 L 760,757 L 759,756 Z" fill="black" /><path d="M 914,755 L 913,756 L 912,756 L 911,757 L 910,757 L 909,758 L 909,759 L 908,760 L 908,797 L 907,798 L 907,822 L 906,823 L 904,823 L 903,824 L 899,824 L 886,811 L 886,810 L 879,803 L 879,802 L 875,798 L 875,796 L 882,789 L 882,788 L 884,786 L 884,784 L 885,783 L 885,770 L 884,769 L 884,766 L 883,765 L 883,764 L 880,761 L 879,761 L 877,759 L 875,759 L 874,758 L 872,758 L 871,757 L 862,757 L 861,756 L 834,756 L 833,757 L 831,757 L 830,758 L 830,761 L 832,763 L 832,822 L 829,825 L 829,826 L 828,827 L 828,830 L 838,830 L 839,831 L 851,831 L 852,830 L 858,830 L 858,828 L 853,823 L 852,823 L 850,821 L 850,804 L 851,803 L 852,803 L 853,802 L 855,802 L 856,803 L 857,803 L 858,804 L 858,805 L 872,819 L 872,820 L 877,825 L 877,826 L 881,830 L 891,830 L 892,831 L 930,831 L 931,830 L 931,827 L 928,824 L 927,824 L 926,823 L 925,823 L 922,820 L 922,818 L 921,817 L 921,786 L 922,785 L 934,797 L 935,797 L 945,807 L 946,807 L 953,814 L 954,814 L 971,831 L 976,831 L 977,830 L 983,830 L 983,767 L 984,766 L 985,766 L 985,758 L 983,758 L 982,757 L 971,757 L 970,758 L 969,758 L 968,759 L 968,763 L 969,764 L 969,785 L 970,786 L 970,802 L 969,803 L 968,802 L 967,802 L 963,798 L 962,798 L 949,785 L 948,785 L 919,756 L 918,756 L 917,755 Z" fill="black" /><path d="M 693,755 L 692,756 L 668,756 L 667,757 L 667,763 L 669,763 L 670,764 L 675,764 L 676,765 L 677,765 L 678,766 L 678,819 L 677,820 L 677,821 L 674,824 L 673,824 L 672,825 L 671,825 L 670,826 L 669,826 L 669,829 L 670,830 L 676,830 L 677,831 L 692,831 L 693,830 L 696,830 L 697,829 L 698,829 L 698,828 L 699,827 L 699,821 L 698,820 L 698,819 L 697,818 L 697,798 L 698,797 L 707,797 L 709,799 L 710,799 L 711,800 L 712,800 L 713,801 L 718,801 L 719,800 L 721,800 L 722,799 L 722,788 L 721,787 L 721,786 L 719,786 L 718,785 L 714,785 L 713,786 L 700,786 L 699,785 L 698,785 L 697,784 L 697,769 L 700,766 L 701,766 L 702,765 L 707,765 L 708,766 L 710,766 L 711,767 L 713,767 L 714,768 L 715,768 L 716,769 L 721,769 L 723,767 L 723,766 L 724,765 L 724,764 L 725,763 L 725,757 L 724,756 L 720,756 L 719,755 Z" fill="black" /><path d="M 1429,630 L 1428,631 L 1427,631 L 1427,633 L 1429,633 Z" fill="black" /><path d="M 1396,619 L 1395,620 L 1386,620 L 1385,621 L 1382,621 L 1381,622 L 1378,622 L 1377,623 L 1376,623 L 1375,624 L 1374,624 L 1372,626 L 1372,627 L 1373,627 L 1374,626 L 1376,626 L 1377,625 L 1381,625 L 1382,624 L 1386,624 L 1387,623 L 1414,623 L 1415,624 L 1415,700 L 1410,705 L 1409,705 L 1406,708 L 1406,710 L 1409,713 L 1450,713 L 1450,707 L 1448,705 L 1447,705 L 1446,704 L 1445,704 L 1444,703 L 1443,703 L 1441,701 L 1441,681 L 1440,680 L 1440,650 L 1439,649 L 1439,624 L 1440,623 L 1444,623 L 1445,622 L 1461,622 L 1462,621 L 1466,621 L 1466,620 L 1463,620 L 1462,619 L 1439,619 L 1437,621 L 1437,622 L 1436,623 L 1436,637 L 1437,638 L 1437,639 L 1436,640 L 1437,641 L 1437,699 L 1436,700 L 1436,704 L 1437,705 L 1437,708 L 1436,709 L 1420,709 L 1419,708 L 1419,705 L 1420,704 L 1420,699 L 1419,698 L 1419,625 L 1420,624 L 1427,624 L 1426,624 L 1425,623 L 1420,623 L 1419,622 L 1419,621 L 1418,620 L 1416,620 L 1415,619 Z" fill="black" /><path d="M 654,618 L 654,625 L 655,625 L 656,626 L 657,626 L 658,627 L 659,627 L 661,629 L 661,644 L 662,645 L 662,689 L 661,690 L 661,701 L 658,704 L 657,704 L 653,708 L 653,709 L 652,710 L 652,713 L 699,713 L 699,712 L 698,711 L 698,710 L 695,707 L 694,707 L 690,703 L 689,703 L 687,701 L 687,628 L 688,627 L 689,627 L 690,626 L 693,626 L 694,625 L 696,625 L 696,624 L 697,623 L 697,618 Z" fill="black" /><path d="M 568,618 L 568,623 L 570,625 L 571,625 L 573,627 L 573,628 L 574,629 L 574,700 L 571,703 L 570,703 L 564,709 L 564,710 L 563,711 L 563,713 L 564,714 L 635,714 L 636,713 L 638,713 L 639,712 L 639,711 L 640,710 L 640,709 L 641,708 L 641,707 L 642,706 L 642,704 L 643,703 L 643,701 L 644,700 L 644,697 L 645,696 L 645,692 L 646,691 L 646,687 L 644,685 L 643,685 L 642,684 L 641,685 L 640,685 L 640,686 L 638,688 L 638,689 L 637,690 L 637,691 L 635,693 L 635,694 L 632,697 L 631,697 L 629,699 L 628,699 L 627,700 L 626,700 L 625,701 L 623,701 L 622,702 L 618,702 L 617,703 L 600,703 L 599,702 L 599,673 L 600,672 L 616,672 L 617,673 L 619,673 L 620,674 L 621,674 L 623,676 L 623,677 L 626,680 L 629,680 L 630,679 L 630,670 L 631,669 L 631,653 L 630,652 L 630,650 L 629,649 L 628,649 L 626,651 L 626,652 L 617,661 L 615,661 L 614,662 L 600,662 L 599,661 L 599,630 L 601,628 L 603,628 L 604,627 L 618,627 L 619,628 L 621,628 L 622,629 L 624,629 L 631,636 L 631,637 L 635,641 L 636,641 L 638,639 L 638,637 L 639,636 L 639,623 L 638,622 L 638,618 Z" fill="black" /><path d="M 445,618 L 444,619 L 444,624 L 445,624 L 446,625 L 449,625 L 450,626 L 454,626 L 455,627 L 455,703 L 454,704 L 452,704 L 451,705 L 449,705 L 448,706 L 446,706 L 445,707 L 444,707 L 443,708 L 443,713 L 455,713 L 456,714 L 488,714 L 489,713 L 490,713 L 490,707 L 489,706 L 488,706 L 487,705 L 486,705 L 485,704 L 483,704 L 482,703 L 481,703 L 480,702 L 480,683 L 479,682 L 479,673 L 480,672 L 519,672 L 520,673 L 520,700 L 518,702 L 517,702 L 516,703 L 515,703 L 514,704 L 513,704 L 512,705 L 509,705 L 508,706 L 506,706 L 506,712 L 507,713 L 509,713 L 510,714 L 556,714 L 556,711 L 554,709 L 554,708 L 553,707 L 552,707 L 549,704 L 548,704 L 547,703 L 546,703 L 545,702 L 545,629 L 546,628 L 547,628 L 548,627 L 549,627 L 552,624 L 553,624 L 554,623 L 554,622 L 555,621 L 555,619 L 554,618 L 518,618 L 517,619 L 515,619 L 514,618 L 513,618 L 511,620 L 511,624 L 513,626 L 516,626 L 517,627 L 518,627 L 520,629 L 519,630 L 520,631 L 519,632 L 519,633 L 520,634 L 520,660 L 519,661 L 483,661 L 482,660 L 480,660 L 479,659 L 479,639 L 480,638 L 480,628 L 482,626 L 484,626 L 485,625 L 487,625 L 488,624 L 488,618 Z" fill="black" /><path d="M 842,617 L 841,618 L 814,618 L 814,621 L 813,622 L 814,623 L 814,624 L 815,624 L 816,625 L 817,625 L 819,627 L 820,627 L 821,628 L 821,701 L 817,705 L 816,705 L 814,707 L 813,707 L 812,708 L 810,708 L 809,707 L 808,707 L 805,704 L 804,704 L 799,699 L 799,698 L 788,687 L 788,686 L 781,679 L 781,678 L 776,673 L 776,672 L 771,667 L 771,666 L 767,662 L 767,661 L 765,659 L 765,658 L 766,657 L 766,656 L 770,652 L 770,651 L 777,644 L 777,643 L 792,628 L 793,628 L 794,627 L 796,627 L 797,626 L 799,626 L 801,624 L 802,624 L 805,621 L 805,618 L 773,618 L 773,619 L 772,620 L 772,623 L 774,625 L 774,626 L 772,628 L 772,629 L 768,633 L 768,634 L 764,638 L 764,639 L 761,642 L 761,643 L 757,647 L 757,648 L 752,653 L 752,654 L 742,664 L 741,663 L 741,629 L 742,628 L 743,628 L 745,626 L 746,626 L 751,621 L 752,621 L 752,620 L 753,619 L 753,618 L 708,618 L 708,625 L 709,626 L 711,626 L 712,627 L 713,627 L 715,629 L 715,698 L 714,699 L 714,703 L 713,704 L 712,704 L 711,705 L 710,705 L 706,709 L 706,711 L 705,712 L 705,713 L 706,714 L 749,714 L 750,713 L 750,709 L 741,700 L 741,680 L 742,679 L 742,678 L 743,677 L 743,676 L 744,675 L 745,675 L 749,679 L 749,680 L 754,685 L 754,686 L 758,690 L 758,691 L 767,700 L 767,701 L 787,721 L 788,721 L 795,728 L 796,728 L 800,732 L 801,732 L 803,734 L 804,734 L 805,735 L 806,735 L 807,736 L 808,736 L 809,737 L 812,737 L 813,738 L 816,738 L 817,739 L 822,739 L 823,740 L 837,740 L 838,739 L 841,739 L 842,738 L 844,738 L 845,737 L 846,737 L 847,736 L 848,736 L 851,733 L 850,732 L 850,731 L 849,731 L 848,730 L 846,730 L 845,729 L 842,729 L 841,728 L 838,728 L 837,727 L 835,727 L 834,726 L 832,726 L 831,725 L 830,725 L 829,724 L 828,724 L 827,723 L 826,723 L 824,721 L 823,721 L 816,714 L 817,713 L 839,713 L 840,714 L 855,714 L 856,713 L 858,713 L 859,712 L 859,708 L 858,707 L 857,707 L 856,706 L 855,706 L 853,704 L 852,704 L 851,703 L 850,703 L 848,701 L 848,673 L 849,672 L 887,672 L 888,673 L 888,678 L 887,679 L 887,702 L 885,704 L 884,704 L 880,708 L 880,709 L 879,710 L 880,711 L 880,712 L 881,712 L 882,713 L 883,713 L 884,714 L 920,714 L 921,713 L 922,713 L 924,711 L 924,709 L 922,707 L 921,707 L 920,706 L 919,706 L 918,705 L 917,705 L 913,701 L 913,661 L 914,660 L 914,628 L 915,627 L 916,627 L 917,626 L 921,626 L 922,625 L 923,625 L 923,618 L 922,617 L 877,617 L 876,618 L 875,618 L 875,621 L 877,623 L 878,623 L 879,624 L 880,624 L 882,626 L 883,626 L 884,627 L 885,627 L 886,628 L 886,659 L 885,660 L 849,660 L 848,659 L 848,628 L 849,627 L 852,627 L 853,626 L 857,626 L 859,624 L 859,621 L 860,620 L 860,618 L 859,617 Z" fill="black" /><path d="M 395,617 L 394,618 L 388,618 L 387,619 L 384,619 L 383,620 L 381,620 L 380,621 L 378,621 L 377,622 L 376,622 L 375,623 L 374,623 L 372,625 L 371,625 L 368,628 L 368,629 L 367,630 L 367,631 L 366,632 L 366,633 L 365,634 L 365,637 L 364,638 L 364,646 L 365,647 L 365,650 L 366,651 L 366,653 L 367,654 L 367,655 L 375,663 L 376,663 L 380,667 L 381,667 L 383,669 L 384,669 L 386,671 L 387,671 L 389,673 L 390,673 L 392,675 L 393,675 L 394,676 L 395,676 L 397,678 L 398,678 L 399,679 L 400,679 L 402,681 L 403,681 L 405,683 L 406,683 L 412,689 L 412,690 L 413,691 L 413,694 L 414,695 L 414,701 L 413,702 L 413,706 L 411,708 L 411,709 L 409,711 L 408,711 L 406,713 L 404,713 L 403,714 L 402,714 L 401,715 L 398,715 L 397,716 L 385,716 L 384,715 L 382,715 L 381,714 L 380,714 L 379,713 L 378,713 L 376,711 L 375,711 L 372,708 L 371,708 L 367,704 L 367,703 L 365,701 L 365,700 L 364,699 L 364,697 L 363,696 L 363,688 L 364,687 L 364,684 L 365,683 L 365,681 L 366,680 L 366,677 L 367,676 L 367,674 L 366,673 L 366,672 L 362,672 L 357,677 L 357,678 L 355,680 L 355,682 L 354,683 L 354,684 L 353,685 L 353,691 L 352,692 L 352,693 L 353,694 L 353,700 L 354,701 L 354,703 L 355,704 L 355,705 L 356,706 L 356,707 L 357,708 L 357,709 L 359,711 L 359,712 L 365,718 L 366,718 L 367,719 L 368,719 L 369,720 L 370,720 L 371,721 L 372,721 L 373,722 L 375,722 L 376,723 L 379,723 L 380,724 L 383,724 L 384,725 L 402,725 L 403,724 L 406,724 L 407,723 L 411,723 L 412,722 L 414,722 L 415,721 L 417,721 L 418,720 L 419,720 L 420,719 L 421,719 L 422,718 L 423,718 L 425,716 L 426,716 L 433,709 L 433,708 L 434,707 L 434,706 L 435,705 L 435,704 L 436,703 L 436,701 L 437,700 L 437,681 L 436,680 L 436,679 L 435,678 L 435,677 L 434,676 L 434,675 L 432,673 L 432,672 L 427,667 L 426,667 L 423,664 L 422,664 L 421,663 L 420,663 L 418,661 L 417,661 L 415,659 L 414,659 L 413,658 L 412,658 L 411,657 L 410,657 L 409,656 L 408,656 L 407,655 L 406,655 L 405,654 L 404,654 L 403,653 L 402,653 L 400,651 L 399,651 L 398,650 L 397,650 L 396,649 L 395,649 L 391,645 L 390,645 L 388,643 L 388,642 L 386,640 L 386,639 L 385,638 L 385,634 L 386,633 L 386,632 L 389,629 L 390,629 L 391,628 L 393,628 L 394,627 L 408,627 L 409,628 L 411,628 L 420,637 L 421,637 L 422,636 L 425,636 L 425,621 L 423,619 L 418,619 L 417,618 L 410,618 L 409,617 Z" fill="black" /><path d="M 1387,612 L 1386,613 L 1384,613 L 1383,614 L 1381,614 L 1380,615 L 1379,615 L 1378,616 L 1377,616 L 1376,617 L 1375,617 L 1370,622 L 1370,623 L 1368,625 L 1368,626 L 1367,627 L 1369,627 L 1370,626 L 1370,625 L 1374,621 L 1375,621 L 1377,619 L 1378,619 L 1379,618 L 1381,618 L 1382,617 L 1384,617 L 1385,616 L 1391,616 L 1392,615 L 1469,615 L 1470,616 L 1470,621 L 1471,621 L 1472,620 L 1472,618 L 1471,617 L 1471,614 L 1470,613 L 1470,612 Z" fill="black" /><path d="M 1521,610 L 1520,611 L 1519,611 L 1517,613 L 1517,614 L 1516,615 L 1516,617 L 1515,618 L 1515,620 L 1514,621 L 1514,623 L 1513,624 L 1513,626 L 1512,627 L 1512,629 L 1511,630 L 1511,632 L 1510,633 L 1510,634 L 1509,635 L 1509,636 L 1508,637 L 1508,638 L 1507,639 L 1507,641 L 1506,642 L 1506,643 L 1505,644 L 1505,645 L 1504,646 L 1504,647 L 1503,648 L 1503,649 L 1502,650 L 1502,651 L 1501,652 L 1501,653 L 1500,654 L 1500,656 L 1499,657 L 1499,658 L 1498,659 L 1498,660 L 1497,661 L 1497,662 L 1496,663 L 1496,665 L 1495,666 L 1495,667 L 1494,668 L 1494,669 L 1493,670 L 1493,671 L 1492,672 L 1492,674 L 1491,675 L 1491,676 L 1490,677 L 1490,678 L 1489,679 L 1489,680 L 1488,681 L 1488,682 L 1487,683 L 1487,684 L 1486,685 L 1486,686 L 1485,687 L 1485,689 L 1484,690 L 1484,691 L 1483,692 L 1483,693 L 1481,695 L 1481,696 L 1480,697 L 1480,698 L 1479,699 L 1479,700 L 1478,701 L 1478,702 L 1476,704 L 1475,704 L 1470,709 L 1470,713 L 1471,714 L 1500,714 L 1501,713 L 1502,713 L 1503,712 L 1503,709 L 1496,702 L 1496,700 L 1497,699 L 1497,698 L 1498,697 L 1498,695 L 1499,694 L 1499,692 L 1500,691 L 1500,690 L 1501,689 L 1501,688 L 1503,686 L 1528,686 L 1529,687 L 1530,687 L 1531,688 L 1531,689 L 1532,690 L 1532,692 L 1533,693 L 1533,694 L 1534,695 L 1534,697 L 1535,698 L 1535,699 L 1536,700 L 1536,704 L 1534,706 L 1534,707 L 1532,709 L 1532,712 L 1534,714 L 1657,714 L 1657,713 L 1658,712 L 1658,710 L 1659,709 L 1659,706 L 1660,705 L 1660,701 L 1661,700 L 1661,694 L 1662,693 L 1662,687 L 1661,686 L 1661,685 L 1660,684 L 1655,684 L 1653,686 L 1653,688 L 1652,689 L 1652,690 L 1651,691 L 1651,692 L 1650,693 L 1650,694 L 1645,699 L 1644,699 L 1643,700 L 1642,700 L 1641,701 L 1640,701 L 1639,702 L 1635,702 L 1634,703 L 1612,703 L 1611,702 L 1611,700 L 1612,699 L 1612,698 L 1613,697 L 1613,696 L 1614,695 L 1614,694 L 1615,693 L 1615,692 L 1616,691 L 1616,690 L 1617,689 L 1617,688 L 1618,687 L 1618,686 L 1620,684 L 1620,683 L 1621,682 L 1621,681 L 1622,680 L 1622,679 L 1624,677 L 1624,676 L 1625,675 L 1625,674 L 1626,673 L 1626,672 L 1627,671 L 1627,670 L 1629,668 L 1629,667 L 1630,666 L 1630,665 L 1631,664 L 1631,663 L 1633,661 L 1633,660 L 1634,659 L 1634,658 L 1636,656 L 1636,655 L 1637,654 L 1637,653 L 1638,652 L 1638,651 L 1639,650 L 1639,649 L 1640,648 L 1640,647 L 1641,646 L 1641,645 L 1642,644 L 1642,643 L 1644,641 L 1644,640 L 1645,639 L 1645,638 L 1646,637 L 1646,636 L 1647,635 L 1647,634 L 1649,632 L 1649,631 L 1650,630 L 1650,629 L 1652,627 L 1652,626 L 1654,624 L 1654,623 L 1656,621 L 1656,620 L 1657,619 L 1657,616 L 1656,615 L 1656,612 L 1579,612 L 1578,613 L 1578,620 L 1577,621 L 1577,630 L 1576,631 L 1576,636 L 1577,636 L 1578,637 L 1583,637 L 1583,636 L 1584,635 L 1584,632 L 1585,631 L 1585,629 L 1586,628 L 1586,627 L 1589,624 L 1592,624 L 1593,623 L 1622,623 L 1623,624 L 1623,625 L 1622,626 L 1622,627 L 1620,629 L 1620,630 L 1619,631 L 1619,632 L 1618,633 L 1618,634 L 1617,635 L 1617,636 L 1616,637 L 1616,638 L 1614,640 L 1614,641 L 1613,642 L 1613,643 L 1612,644 L 1612,645 L 1610,647 L 1610,648 L 1609,649 L 1609,650 L 1608,651 L 1608,652 L 1607,653 L 1607,654 L 1605,656 L 1605,657 L 1604,658 L 1604,659 L 1603,660 L 1603,661 L 1601,663 L 1601,664 L 1600,665 L 1600,666 L 1598,668 L 1598,669 L 1597,670 L 1597,671 L 1596,672 L 1596,673 L 1594,675 L 1594,676 L 1593,677 L 1593,678 L 1592,679 L 1592,680 L 1591,681 L 1591,682 L 1589,684 L 1589,685 L 1588,686 L 1588,687 L 1587,688 L 1587,689 L 1586,690 L 1586,691 L 1585,692 L 1585,693 L 1583,695 L 1583,696 L 1582,697 L 1582,698 L 1578,702 L 1578,703 L 1576,705 L 1573,705 L 1572,704 L 1571,704 L 1567,700 L 1567,699 L 1565,697 L 1565,696 L 1564,695 L 1564,694 L 1563,693 L 1563,692 L 1562,691 L 1562,690 L 1561,689 L 1561,688 L 1560,687 L 1560,685 L 1559,684 L 1559,683 L 1558,682 L 1558,681 L 1557,680 L 1557,679 L 1556,678 L 1556,677 L 1555,676 L 1555,675 L 1554,674 L 1554,673 L 1553,672 L 1553,670 L 1552,669 L 1552,668 L 1551,667 L 1551,666 L 1550,665 L 1550,664 L 1549,663 L 1549,661 L 1548,660 L 1548,659 L 1547,658 L 1547,656 L 1546,655 L 1546,654 L 1545,653 L 1545,652 L 1544,651 L 1544,649 L 1543,648 L 1543,647 L 1542,646 L 1542,645 L 1541,644 L 1541,643 L 1540,642 L 1540,641 L 1539,640 L 1539,638 L 1538,637 L 1538,636 L 1537,635 L 1537,634 L 1535,632 L 1535,630 L 1533,628 L 1533,627 L 1532,626 L 1532,625 L 1531,624 L 1531,623 L 1530,622 L 1530,621 L 1529,620 L 1529,619 L 1528,618 L 1528,617 L 1527,616 L 1527,615 L 1526,614 L 1526,613 L 1525,612 L 1525,610 Z" fill="black" /><path d="M 1235,599 L 1234,600 L 1232,600 L 1230,602 L 1230,603 L 1229,604 L 1230,605 L 1230,606 L 1234,610 L 1233,611 L 1226,611 L 1225,612 L 1208,612 L 1207,613 L 1207,618 L 1208,619 L 1210,619 L 1211,620 L 1214,620 L 1215,621 L 1216,621 L 1218,623 L 1218,687 L 1217,688 L 1217,689 L 1216,690 L 1216,691 L 1214,693 L 1214,694 L 1210,698 L 1209,698 L 1207,700 L 1206,700 L 1205,701 L 1204,701 L 1203,702 L 1200,702 L 1199,703 L 1191,703 L 1190,702 L 1185,702 L 1184,701 L 1182,701 L 1181,700 L 1180,700 L 1179,699 L 1178,699 L 1173,694 L 1173,693 L 1171,691 L 1171,689 L 1170,688 L 1170,685 L 1169,684 L 1169,674 L 1168,673 L 1168,621 L 1169,620 L 1172,620 L 1173,619 L 1174,619 L 1175,618 L 1175,617 L 1177,615 L 1177,612 L 1134,612 L 1133,613 L 1133,619 L 1134,619 L 1135,620 L 1137,620 L 1138,621 L 1141,621 L 1143,623 L 1143,683 L 1144,684 L 1144,690 L 1145,691 L 1145,693 L 1146,694 L 1146,696 L 1148,698 L 1148,699 L 1154,705 L 1155,705 L 1158,708 L 1159,708 L 1160,709 L 1161,709 L 1163,711 L 1165,711 L 1166,712 L 1167,712 L 1168,713 L 1170,713 L 1171,714 L 1174,714 L 1175,715 L 1179,715 L 1180,716 L 1196,716 L 1197,715 L 1202,715 L 1203,714 L 1206,714 L 1207,713 L 1209,713 L 1210,712 L 1211,712 L 1212,711 L 1213,711 L 1215,709 L 1216,709 L 1219,706 L 1220,706 L 1222,704 L 1222,703 L 1226,699 L 1226,698 L 1227,697 L 1227,696 L 1229,694 L 1229,693 L 1230,692 L 1230,690 L 1231,689 L 1231,686 L 1232,685 L 1232,623 L 1234,621 L 1235,621 L 1236,620 L 1239,620 L 1240,619 L 1248,619 L 1254,625 L 1254,626 L 1257,629 L 1257,630 L 1260,633 L 1260,634 L 1261,635 L 1261,636 L 1262,637 L 1262,646 L 1261,647 L 1261,652 L 1260,653 L 1260,657 L 1259,658 L 1259,664 L 1258,665 L 1258,670 L 1257,671 L 1257,679 L 1256,680 L 1256,689 L 1255,690 L 1255,697 L 1254,698 L 1254,700 L 1249,705 L 1248,705 L 1248,706 L 1247,707 L 1247,708 L 1248,709 L 1248,711 L 1250,713 L 1251,713 L 1252,714 L 1256,714 L 1257,715 L 1258,715 L 1259,714 L 1271,714 L 1272,713 L 1273,713 L 1274,712 L 1274,711 L 1275,710 L 1275,706 L 1272,703 L 1272,702 L 1271,701 L 1271,698 L 1270,697 L 1270,684 L 1271,683 L 1271,673 L 1272,672 L 1272,667 L 1273,666 L 1273,663 L 1275,661 L 1277,663 L 1277,664 L 1279,666 L 1279,667 L 1280,668 L 1280,669 L 1282,671 L 1282,672 L 1283,673 L 1283,674 L 1284,675 L 1284,676 L 1285,677 L 1285,678 L 1287,680 L 1287,682 L 1289,684 L 1289,685 L 1290,686 L 1290,687 L 1291,688 L 1291,689 L 1292,690 L 1292,691 L 1294,693 L 1294,694 L 1295,695 L 1295,696 L 1296,697 L 1296,698 L 1298,700 L 1298,701 L 1300,703 L 1300,704 L 1301,705 L 1301,706 L 1303,708 L 1303,709 L 1304,710 L 1304,711 L 1305,712 L 1305,713 L 1306,714 L 1309,714 L 1310,713 L 1310,712 L 1311,711 L 1311,709 L 1312,708 L 1312,706 L 1313,705 L 1313,703 L 1314,702 L 1314,701 L 1316,699 L 1316,698 L 1318,696 L 1318,695 L 1320,693 L 1320,692 L 1322,690 L 1322,689 L 1325,686 L 1325,685 L 1327,683 L 1327,682 L 1329,680 L 1329,679 L 1331,677 L 1331,676 L 1333,674 L 1333,673 L 1334,672 L 1334,671 L 1336,669 L 1336,668 L 1337,667 L 1338,667 L 1339,668 L 1339,672 L 1340,673 L 1340,677 L 1341,678 L 1341,682 L 1342,683 L 1342,687 L 1343,688 L 1343,691 L 1344,692 L 1344,695 L 1345,696 L 1345,700 L 1346,701 L 1346,703 L 1347,704 L 1347,707 L 1348,708 L 1348,710 L 1349,711 L 1349,712 L 1350,713 L 1350,714 L 1351,715 L 1351,716 L 1352,717 L 1352,718 L 1353,719 L 1353,720 L 1356,723 L 1356,724 L 1360,728 L 1361,728 L 1365,732 L 1366,732 L 1368,734 L 1369,734 L 1371,736 L 1372,736 L 1373,737 L 1374,737 L 1375,738 L 1376,738 L 1377,739 L 1379,739 L 1380,740 L 1386,740 L 1387,741 L 1394,741 L 1395,740 L 1400,740 L 1401,739 L 1405,739 L 1407,737 L 1407,733 L 1405,731 L 1404,731 L 1403,730 L 1400,730 L 1399,729 L 1396,729 L 1395,728 L 1393,728 L 1392,727 L 1391,727 L 1390,726 L 1389,726 L 1386,723 L 1385,723 L 1382,720 L 1382,719 L 1378,715 L 1378,714 L 1377,713 L 1377,712 L 1376,711 L 1376,710 L 1375,709 L 1375,707 L 1374,706 L 1374,705 L 1373,704 L 1373,701 L 1372,700 L 1372,698 L 1371,697 L 1371,694 L 1370,693 L 1370,688 L 1369,687 L 1369,681 L 1368,680 L 1368,675 L 1367,674 L 1367,667 L 1366,666 L 1366,661 L 1365,660 L 1365,655 L 1364,654 L 1364,650 L 1363,649 L 1363,644 L 1362,643 L 1362,639 L 1361,638 L 1361,634 L 1360,633 L 1360,629 L 1359,628 L 1359,623 L 1358,622 L 1358,618 L 1357,617 L 1357,613 L 1356,612 L 1352,612 L 1351,613 L 1350,613 L 1345,618 L 1345,619 L 1344,620 L 1344,622 L 1343,623 L 1343,624 L 1342,625 L 1342,626 L 1341,627 L 1341,628 L 1340,629 L 1340,630 L 1338,632 L 1338,633 L 1337,634 L 1337,635 L 1335,637 L 1335,638 L 1334,639 L 1334,640 L 1332,642 L 1332,643 L 1331,644 L 1331,645 L 1329,647 L 1329,648 L 1328,649 L 1328,650 L 1327,651 L 1327,652 L 1325,654 L 1325,655 L 1324,656 L 1324,657 L 1323,658 L 1323,659 L 1321,661 L 1321,662 L 1320,663 L 1320,664 L 1318,666 L 1318,667 L 1317,668 L 1317,669 L 1315,671 L 1315,672 L 1313,674 L 1312,673 L 1312,672 L 1310,670 L 1310,669 L 1309,668 L 1309,667 L 1308,666 L 1308,665 L 1307,664 L 1307,663 L 1306,662 L 1306,661 L 1304,659 L 1304,658 L 1303,657 L 1303,656 L 1302,655 L 1302,654 L 1301,653 L 1301,652 L 1299,650 L 1299,649 L 1298,648 L 1298,647 L 1297,646 L 1297,645 L 1295,643 L 1295,642 L 1294,641 L 1294,640 L 1293,639 L 1293,638 L 1291,636 L 1291,635 L 1290,634 L 1290,633 L 1288,631 L 1288,630 L 1287,629 L 1287,628 L 1285,626 L 1285,625 L 1282,622 L 1282,621 L 1266,605 L 1265,605 L 1263,603 L 1262,603 L 1261,602 L 1260,602 L 1259,601 L 1257,601 L 1256,600 L 1254,600 L 1253,599 Z" fill="black" /><path d="M 992,598 L 991,599 L 986,599 L 985,600 L 982,600 L 980,602 L 980,606 L 981,607 L 981,608 L 983,610 L 984,610 L 985,611 L 986,611 L 987,612 L 988,612 L 989,613 L 990,613 L 992,615 L 993,615 L 994,616 L 995,616 L 997,618 L 998,618 L 1004,624 L 1004,625 L 1007,628 L 1007,629 L 1008,630 L 1008,661 L 1007,662 L 1007,674 L 1006,675 L 1006,687 L 1005,688 L 1005,695 L 1004,696 L 1004,700 L 1001,703 L 1001,704 L 999,706 L 999,707 L 998,708 L 998,711 L 1000,713 L 1017,713 L 1018,712 L 1022,712 L 1023,711 L 1025,711 L 1027,709 L 1027,707 L 1026,706 L 1026,705 L 1025,704 L 1025,703 L 1024,702 L 1024,691 L 1025,690 L 1025,678 L 1026,677 L 1026,671 L 1027,670 L 1027,664 L 1028,663 L 1031,666 L 1031,668 L 1032,669 L 1032,670 L 1033,671 L 1033,672 L 1034,673 L 1034,674 L 1035,675 L 1035,676 L 1037,678 L 1037,679 L 1038,680 L 1038,681 L 1040,683 L 1040,684 L 1042,686 L 1042,687 L 1043,688 L 1043,689 L 1045,691 L 1045,692 L 1047,694 L 1047,695 L 1048,696 L 1048,697 L 1050,699 L 1050,700 L 1052,702 L 1052,703 L 1054,705 L 1054,706 L 1059,711 L 1064,711 L 1064,710 L 1065,709 L 1065,708 L 1066,707 L 1066,706 L 1067,705 L 1067,704 L 1068,703 L 1068,702 L 1069,701 L 1069,700 L 1070,699 L 1070,698 L 1071,697 L 1071,696 L 1073,694 L 1073,693 L 1074,692 L 1074,691 L 1075,690 L 1075,689 L 1076,688 L 1076,687 L 1078,685 L 1078,684 L 1079,683 L 1079,682 L 1081,680 L 1081,679 L 1083,677 L 1083,676 L 1085,674 L 1085,673 L 1087,671 L 1087,670 L 1089,668 L 1089,667 L 1090,666 L 1092,668 L 1092,670 L 1093,671 L 1093,679 L 1094,680 L 1094,687 L 1095,688 L 1095,692 L 1096,693 L 1096,696 L 1097,697 L 1097,700 L 1098,701 L 1098,703 L 1099,704 L 1099,706 L 1100,707 L 1100,709 L 1101,710 L 1101,711 L 1102,712 L 1102,713 L 1103,714 L 1103,715 L 1105,717 L 1105,718 L 1107,720 L 1107,721 L 1110,724 L 1110,725 L 1117,732 L 1118,732 L 1122,736 L 1123,736 L 1124,737 L 1125,737 L 1126,738 L 1127,738 L 1128,739 L 1130,739 L 1131,740 L 1153,740 L 1154,739 L 1156,739 L 1157,738 L 1158,738 L 1160,736 L 1160,735 L 1161,734 L 1161,733 L 1160,732 L 1160,731 L 1159,731 L 1158,730 L 1156,730 L 1155,729 L 1152,729 L 1151,728 L 1148,728 L 1147,727 L 1146,727 L 1143,724 L 1142,724 L 1138,720 L 1138,719 L 1134,715 L 1134,714 L 1133,713 L 1133,712 L 1132,711 L 1132,710 L 1131,709 L 1131,707 L 1130,706 L 1130,705 L 1129,704 L 1129,701 L 1128,700 L 1128,698 L 1127,697 L 1127,693 L 1126,692 L 1126,688 L 1125,687 L 1125,682 L 1124,681 L 1124,675 L 1123,674 L 1123,669 L 1122,668 L 1122,661 L 1121,660 L 1121,655 L 1120,654 L 1120,649 L 1119,648 L 1119,643 L 1118,642 L 1118,638 L 1117,637 L 1117,633 L 1116,632 L 1116,628 L 1115,627 L 1115,623 L 1114,622 L 1114,620 L 1113,619 L 1113,618 L 1111,616 L 1111,615 L 1109,613 L 1108,613 L 1107,612 L 1106,612 L 1105,613 L 1103,613 L 1102,614 L 1101,614 L 1100,615 L 1100,616 L 1099,617 L 1099,618 L 1098,619 L 1098,620 L 1096,622 L 1096,623 L 1095,624 L 1095,625 L 1093,627 L 1093,628 L 1091,630 L 1091,631 L 1090,632 L 1090,633 L 1088,635 L 1088,636 L 1086,638 L 1086,639 L 1084,641 L 1084,642 L 1083,643 L 1083,644 L 1081,646 L 1081,647 L 1079,649 L 1079,650 L 1078,651 L 1078,652 L 1076,654 L 1076,655 L 1075,656 L 1075,657 L 1073,659 L 1073,660 L 1071,662 L 1071,663 L 1070,664 L 1070,665 L 1069,666 L 1068,666 L 1066,664 L 1066,663 L 1063,660 L 1063,659 L 1062,658 L 1062,657 L 1060,655 L 1060,654 L 1059,653 L 1059,652 L 1058,651 L 1058,650 L 1057,649 L 1057,648 L 1055,646 L 1055,645 L 1054,644 L 1054,643 L 1053,642 L 1053,641 L 1052,640 L 1052,639 L 1050,637 L 1050,635 L 1048,633 L 1048,632 L 1047,631 L 1047,630 L 1045,628 L 1045,627 L 1043,625 L 1043,624 L 1039,620 L 1039,619 L 1028,608 L 1027,608 L 1024,605 L 1023,605 L 1022,604 L 1021,604 L 1020,603 L 1019,603 L 1018,602 L 1017,602 L 1016,601 L 1015,601 L 1014,600 L 1012,600 L 1011,599 L 1004,599 L 1003,598 Z" fill="black" /><path d="M 1030,101 L 1029,102 L 1026,102 L 1025,103 L 1023,103 L 1022,104 L 1021,104 L 1020,105 L 1019,105 L 1016,108 L 1015,108 L 1015,109 L 1012,112 L 1012,113 L 1011,114 L 1011,117 L 1010,118 L 1010,134 L 1011,135 L 1011,137 L 1012,138 L 1012,139 L 1014,141 L 1014,142 L 1019,147 L 1020,147 L 1022,149 L 1023,149 L 1026,152 L 1027,152 L 1028,153 L 1029,153 L 1030,154 L 1031,154 L 1032,155 L 1033,155 L 1034,156 L 1037,156 L 1038,157 L 1042,157 L 1043,158 L 1047,158 L 1048,159 L 1053,159 L 1054,160 L 1090,160 L 1091,159 L 1098,159 L 1099,158 L 1108,158 L 1109,157 L 1116,157 L 1117,156 L 1146,156 L 1147,157 L 1147,159 L 1149,161 L 1150,161 L 1151,162 L 1154,162 L 1155,163 L 1159,163 L 1160,164 L 1164,164 L 1165,165 L 1168,165 L 1169,166 L 1171,166 L 1172,167 L 1173,167 L 1174,168 L 1175,168 L 1176,169 L 1177,169 L 1178,170 L 1179,170 L 1180,171 L 1181,171 L 1183,173 L 1184,173 L 1186,175 L 1187,175 L 1194,182 L 1194,183 L 1195,184 L 1195,187 L 1194,188 L 1193,187 L 1193,186 L 1188,181 L 1187,181 L 1186,180 L 1185,180 L 1184,179 L 1181,179 L 1180,178 L 1166,178 L 1165,179 L 1163,179 L 1162,180 L 1160,180 L 1159,181 L 1158,181 L 1157,182 L 1156,182 L 1155,183 L 1154,183 L 1146,191 L 1146,192 L 1145,193 L 1145,194 L 1144,195 L 1144,206 L 1145,207 L 1145,209 L 1146,210 L 1146,211 L 1148,213 L 1148,214 L 1159,225 L 1157,227 L 1140,210 L 1139,210 L 1136,207 L 1135,207 L 1133,205 L 1132,205 L 1130,203 L 1129,203 L 1127,201 L 1126,201 L 1125,200 L 1124,200 L 1123,199 L 1122,199 L 1120,197 L 1119,197 L 1118,196 L 1117,196 L 1116,195 L 1115,195 L 1114,194 L 1112,194 L 1111,193 L 1110,193 L 1109,192 L 1108,192 L 1107,191 L 1106,191 L 1105,190 L 1104,190 L 1103,189 L 1102,189 L 1101,188 L 1100,188 L 1099,187 L 1097,187 L 1096,186 L 1095,186 L 1094,185 L 1093,185 L 1092,184 L 1090,184 L 1089,183 L 1088,183 L 1087,182 L 1085,182 L 1084,181 L 1082,181 L 1081,180 L 1079,180 L 1078,179 L 1077,179 L 1076,178 L 1074,178 L 1073,177 L 1071,177 L 1070,176 L 1067,176 L 1066,175 L 1064,175 L 1063,174 L 1061,174 L 1060,173 L 1055,173 L 1054,172 L 1049,172 L 1048,171 L 1041,171 L 1040,170 L 1032,170 L 1031,169 L 992,169 L 991,170 L 985,170 L 984,171 L 979,171 L 978,172 L 973,172 L 972,173 L 967,173 L 966,174 L 961,174 L 960,175 L 957,175 L 956,176 L 952,176 L 951,177 L 949,177 L 948,178 L 945,178 L 944,179 L 942,179 L 941,180 L 939,180 L 938,181 L 935,181 L 934,182 L 932,182 L 931,183 L 930,183 L 929,184 L 927,184 L 926,185 L 924,185 L 923,186 L 922,186 L 921,187 L 919,187 L 918,188 L 917,188 L 916,189 L 914,189 L 913,190 L 912,190 L 911,191 L 909,191 L 908,192 L 907,192 L 906,193 L 905,193 L 904,194 L 903,194 L 902,195 L 901,195 L 900,196 L 899,196 L 898,197 L 897,197 L 896,198 L 895,198 L 893,200 L 892,200 L 890,202 L 889,202 L 887,204 L 886,204 L 884,206 L 883,206 L 878,211 L 877,211 L 868,220 L 867,220 L 843,244 L 842,244 L 839,241 L 838,241 L 836,239 L 834,239 L 833,238 L 830,238 L 829,237 L 820,237 L 819,236 L 806,236 L 805,237 L 804,237 L 803,238 L 802,238 L 801,239 L 800,239 L 799,240 L 798,240 L 797,241 L 796,241 L 795,240 L 796,239 L 796,238 L 797,237 L 797,230 L 796,229 L 796,226 L 795,225 L 795,221 L 794,220 L 794,217 L 795,216 L 802,223 L 803,223 L 805,225 L 806,225 L 808,227 L 809,227 L 810,228 L 811,228 L 812,229 L 813,229 L 814,230 L 816,230 L 817,231 L 819,231 L 820,232 L 836,232 L 837,231 L 841,231 L 842,230 L 845,230 L 846,229 L 848,229 L 849,228 L 850,228 L 851,227 L 852,227 L 856,223 L 856,222 L 858,220 L 858,219 L 860,217 L 860,216 L 861,215 L 861,214 L 863,212 L 863,210 L 864,209 L 864,196 L 863,195 L 863,194 L 862,193 L 862,192 L 860,190 L 860,189 L 856,185 L 855,185 L 854,184 L 853,184 L 852,183 L 851,183 L 850,182 L 849,182 L 848,181 L 835,181 L 834,182 L 832,182 L 831,183 L 830,183 L 829,184 L 828,184 L 823,189 L 823,190 L 822,191 L 822,192 L 821,193 L 821,194 L 820,195 L 820,196 L 819,197 L 819,198 L 818,199 L 817,198 L 817,197 L 816,196 L 816,194 L 815,193 L 815,190 L 816,189 L 816,186 L 817,185 L 817,183 L 818,182 L 818,181 L 820,179 L 820,178 L 826,172 L 827,172 L 829,170 L 830,170 L 832,168 L 833,168 L 834,167 L 835,167 L 836,166 L 838,166 L 839,165 L 840,165 L 841,164 L 843,164 L 844,163 L 846,163 L 847,162 L 849,162 L 850,161 L 853,161 L 854,160 L 857,160 L 858,159 L 861,159 L 862,158 L 872,158 L 873,157 L 897,157 L 898,158 L 912,158 L 913,159 L 923,159 L 924,160 L 953,160 L 954,161 L 958,161 L 959,160 L 965,160 L 966,159 L 970,159 L 971,158 L 975,158 L 976,157 L 979,157 L 980,156 L 983,156 L 984,155 L 985,155 L 986,154 L 987,154 L 988,153 L 989,153 L 990,152 L 991,152 L 992,151 L 993,151 L 995,149 L 996,149 L 1001,144 L 1001,143 L 1002,142 L 1002,141 L 1003,140 L 1003,139 L 1004,138 L 1004,136 L 1005,135 L 1005,123 L 1004,122 L 1004,116 L 1003,115 L 1003,114 L 1002,113 L 1002,112 L 996,106 L 995,106 L 994,105 L 993,105 L 992,104 L 991,104 L 990,103 L 987,103 L 986,102 L 970,102 L 969,103 L 968,103 L 967,104 L 966,104 L 965,105 L 964,105 L 962,107 L 962,108 L 961,109 L 961,117 L 962,118 L 962,120 L 964,122 L 964,123 L 968,127 L 967,128 L 964,128 L 963,129 L 948,129 L 947,128 L 929,128 L 928,129 L 916,129 L 915,128 L 899,128 L 898,127 L 847,127 L 846,128 L 843,128 L 842,129 L 841,129 L 840,130 L 838,130 L 837,131 L 835,131 L 834,132 L 833,132 L 832,133 L 830,133 L 829,134 L 826,134 L 825,135 L 824,135 L 823,136 L 821,136 L 820,137 L 818,137 L 817,138 L 816,138 L 815,139 L 814,139 L 813,140 L 812,140 L 811,141 L 809,141 L 808,142 L 807,142 L 805,144 L 804,144 L 803,145 L 802,145 L 801,146 L 800,146 L 799,147 L 798,147 L 795,150 L 794,150 L 789,155 L 788,155 L 784,159 L 784,160 L 777,167 L 777,168 L 772,173 L 772,174 L 759,187 L 758,187 L 755,190 L 754,190 L 752,192 L 751,192 L 748,195 L 747,195 L 746,196 L 745,196 L 743,198 L 742,198 L 741,199 L 740,199 L 739,200 L 738,200 L 737,201 L 736,201 L 735,202 L 734,202 L 733,203 L 732,203 L 731,204 L 730,204 L 729,205 L 728,205 L 727,206 L 726,206 L 725,207 L 724,207 L 723,208 L 722,208 L 721,209 L 720,209 L 718,211 L 717,211 L 716,212 L 715,212 L 714,213 L 713,213 L 711,215 L 710,215 L 709,216 L 708,216 L 706,218 L 705,218 L 701,222 L 701,224 L 700,225 L 700,227 L 699,228 L 699,230 L 698,231 L 696,231 L 695,230 L 691,230 L 690,229 L 683,229 L 682,228 L 661,228 L 660,229 L 653,229 L 652,230 L 648,230 L 647,231 L 643,231 L 642,232 L 640,232 L 639,233 L 637,233 L 636,234 L 634,234 L 633,235 L 632,235 L 631,236 L 629,236 L 628,237 L 627,237 L 626,238 L 625,238 L 624,239 L 622,239 L 621,240 L 620,240 L 619,241 L 618,241 L 617,242 L 616,242 L 615,243 L 613,243 L 612,244 L 611,244 L 610,245 L 608,245 L 606,247 L 605,247 L 604,248 L 603,248 L 601,250 L 600,250 L 599,251 L 598,251 L 596,253 L 595,253 L 593,255 L 592,255 L 590,257 L 589,257 L 587,259 L 586,259 L 582,263 L 581,263 L 577,267 L 576,267 L 554,289 L 554,290 L 547,297 L 546,297 L 544,299 L 543,299 L 542,300 L 541,300 L 540,301 L 536,301 L 535,302 L 531,302 L 530,303 L 526,303 L 525,304 L 522,304 L 521,305 L 518,305 L 517,306 L 514,306 L 513,307 L 511,307 L 510,308 L 508,308 L 507,309 L 505,309 L 504,310 L 502,310 L 501,311 L 499,311 L 498,312 L 497,312 L 496,313 L 495,313 L 494,314 L 493,314 L 492,315 L 491,315 L 490,316 L 489,316 L 487,318 L 486,318 L 485,319 L 484,319 L 482,321 L 481,321 L 478,324 L 477,324 L 466,335 L 466,336 L 460,342 L 460,343 L 456,347 L 456,348 L 454,350 L 454,351 L 452,353 L 452,354 L 450,356 L 450,357 L 449,358 L 449,359 L 448,360 L 448,361 L 447,362 L 447,364 L 446,365 L 446,366 L 445,367 L 445,369 L 444,370 L 444,372 L 443,373 L 443,377 L 442,378 L 442,384 L 443,385 L 443,387 L 444,388 L 444,390 L 445,391 L 445,393 L 446,394 L 446,396 L 447,397 L 447,398 L 448,399 L 448,400 L 449,401 L 449,402 L 453,406 L 453,407 L 456,410 L 456,411 L 460,415 L 460,416 L 469,425 L 470,425 L 471,426 L 473,426 L 474,427 L 476,427 L 477,428 L 478,428 L 480,430 L 482,430 L 484,432 L 486,432 L 487,433 L 488,433 L 489,434 L 491,434 L 492,435 L 496,435 L 497,436 L 501,436 L 502,437 L 509,437 L 510,438 L 523,438 L 524,437 L 530,437 L 531,436 L 535,436 L 536,435 L 540,435 L 541,434 L 543,434 L 544,433 L 546,433 L 547,432 L 549,432 L 550,431 L 551,431 L 552,430 L 553,430 L 554,429 L 555,429 L 557,427 L 558,427 L 559,426 L 560,426 L 562,424 L 563,424 L 571,416 L 571,415 L 572,414 L 572,413 L 573,412 L 573,410 L 574,409 L 574,397 L 573,396 L 573,393 L 572,392 L 572,391 L 571,390 L 571,388 L 569,386 L 569,385 L 567,383 L 567,382 L 562,377 L 561,377 L 559,375 L 558,375 L 557,374 L 556,374 L 555,373 L 554,373 L 553,372 L 551,372 L 550,371 L 548,371 L 547,370 L 545,370 L 544,369 L 541,369 L 540,368 L 534,368 L 533,367 L 530,367 L 529,368 L 523,368 L 522,369 L 521,369 L 520,370 L 518,370 L 517,371 L 516,371 L 515,372 L 514,372 L 513,373 L 512,373 L 510,375 L 509,375 L 502,382 L 502,383 L 499,386 L 498,386 L 497,385 L 497,381 L 498,380 L 498,378 L 499,377 L 499,376 L 500,375 L 500,374 L 511,363 L 512,363 L 515,360 L 516,360 L 518,358 L 519,358 L 521,356 L 522,356 L 523,355 L 525,355 L 526,354 L 528,354 L 529,353 L 531,353 L 532,352 L 538,352 L 539,351 L 552,351 L 553,352 L 564,352 L 565,353 L 568,353 L 569,354 L 570,354 L 572,356 L 573,356 L 575,358 L 576,358 L 578,360 L 582,360 L 583,359 L 586,359 L 588,357 L 589,357 L 592,354 L 592,353 L 593,352 L 593,347 L 592,346 L 592,345 L 591,344 L 590,344 L 589,343 L 588,343 L 587,342 L 587,340 L 588,339 L 591,339 L 592,340 L 596,340 L 597,341 L 600,341 L 601,342 L 604,342 L 605,343 L 607,343 L 608,344 L 609,344 L 610,345 L 611,345 L 612,346 L 613,346 L 614,347 L 616,347 L 617,348 L 618,348 L 619,349 L 621,349 L 622,350 L 623,350 L 624,351 L 625,351 L 626,352 L 628,352 L 629,353 L 630,353 L 631,354 L 633,354 L 634,355 L 635,355 L 636,356 L 637,356 L 638,357 L 640,357 L 641,358 L 642,358 L 643,359 L 645,359 L 646,360 L 647,360 L 648,361 L 649,361 L 650,362 L 651,362 L 652,363 L 654,363 L 655,364 L 656,364 L 658,366 L 660,366 L 662,368 L 663,368 L 664,369 L 665,369 L 666,370 L 667,370 L 669,372 L 670,372 L 671,373 L 672,373 L 673,374 L 674,374 L 675,375 L 676,375 L 677,376 L 678,376 L 679,377 L 680,377 L 681,378 L 683,378 L 684,379 L 686,379 L 687,380 L 689,380 L 690,381 L 691,381 L 692,382 L 693,382 L 694,383 L 695,383 L 696,384 L 697,384 L 698,385 L 700,385 L 701,386 L 702,386 L 703,387 L 704,387 L 705,388 L 707,388 L 708,389 L 709,389 L 710,390 L 711,390 L 712,391 L 713,391 L 714,392 L 715,392 L 716,393 L 716,394 L 715,395 L 714,395 L 713,396 L 711,396 L 710,397 L 709,397 L 708,398 L 706,398 L 703,401 L 702,401 L 701,402 L 701,403 L 699,405 L 699,406 L 698,407 L 698,409 L 697,410 L 697,413 L 698,414 L 698,415 L 699,416 L 699,417 L 708,426 L 709,426 L 711,428 L 712,428 L 714,430 L 715,430 L 716,431 L 717,431 L 718,432 L 719,432 L 720,433 L 724,433 L 725,434 L 728,434 L 729,435 L 732,435 L 733,436 L 735,436 L 736,437 L 737,437 L 738,438 L 739,438 L 740,439 L 741,439 L 743,441 L 744,441 L 747,444 L 748,444 L 757,453 L 757,454 L 763,460 L 763,461 L 767,465 L 767,466 L 771,470 L 771,471 L 775,475 L 775,476 L 785,486 L 786,486 L 788,488 L 789,488 L 792,491 L 793,491 L 794,492 L 795,492 L 797,494 L 798,494 L 799,495 L 800,495 L 802,497 L 804,497 L 806,499 L 807,499 L 808,500 L 810,500 L 811,501 L 812,501 L 813,502 L 815,502 L 816,503 L 818,503 L 819,504 L 822,504 L 823,505 L 825,505 L 826,506 L 830,506 L 831,507 L 838,507 L 839,508 L 850,508 L 851,509 L 857,509 L 858,508 L 888,508 L 889,507 L 900,507 L 901,506 L 914,506 L 915,505 L 922,505 L 924,507 L 925,507 L 926,508 L 928,508 L 929,509 L 934,509 L 935,510 L 942,510 L 943,511 L 951,511 L 952,512 L 953,512 L 955,514 L 955,515 L 954,516 L 954,529 L 955,530 L 955,532 L 959,536 L 960,536 L 961,537 L 962,537 L 963,538 L 965,538 L 966,539 L 969,539 L 970,540 L 981,540 L 982,539 L 986,539 L 987,538 L 989,538 L 990,537 L 991,537 L 992,536 L 994,536 L 996,534 L 997,534 L 1000,531 L 1000,530 L 1001,529 L 1004,529 L 1011,536 L 1012,536 L 1013,537 L 1014,537 L 1015,538 L 1016,538 L 1017,539 L 1022,539 L 1023,540 L 1033,540 L 1034,539 L 1040,539 L 1041,538 L 1043,538 L 1044,537 L 1045,537 L 1046,536 L 1047,536 L 1049,534 L 1050,534 L 1050,533 L 1052,531 L 1052,530 L 1053,529 L 1053,525 L 1054,524 L 1054,522 L 1053,521 L 1053,518 L 1052,517 L 1052,516 L 1051,515 L 1051,513 L 1053,511 L 1059,511 L 1060,510 L 1070,510 L 1071,509 L 1077,509 L 1078,508 L 1156,508 L 1157,507 L 1165,507 L 1166,506 L 1170,506 L 1171,505 L 1175,505 L 1176,504 L 1179,504 L 1180,503 L 1183,503 L 1184,502 L 1187,502 L 1188,501 L 1191,501 L 1192,500 L 1194,500 L 1195,499 L 1196,499 L 1197,498 L 1199,498 L 1200,497 L 1201,497 L 1202,496 L 1203,496 L 1204,495 L 1205,495 L 1206,494 L 1207,494 L 1208,493 L 1209,493 L 1210,492 L 1211,492 L 1212,491 L 1213,491 L 1214,490 L 1215,490 L 1216,489 L 1217,489 L 1218,488 L 1219,488 L 1221,486 L 1222,486 L 1225,483 L 1226,483 L 1233,476 L 1233,475 L 1237,471 L 1237,470 L 1240,467 L 1240,466 L 1242,464 L 1242,463 L 1243,462 L 1243,461 L 1245,459 L 1245,458 L 1246,457 L 1246,456 L 1248,454 L 1248,453 L 1250,451 L 1250,450 L 1253,447 L 1253,446 L 1257,442 L 1258,442 L 1261,439 L 1262,439 L 1264,437 L 1266,437 L 1267,436 L 1268,436 L 1269,435 L 1271,435 L 1272,434 L 1274,434 L 1275,433 L 1277,433 L 1278,432 L 1280,432 L 1281,431 L 1282,431 L 1283,430 L 1286,430 L 1287,429 L 1288,429 L 1289,428 L 1291,428 L 1292,427 L 1294,427 L 1295,426 L 1298,426 L 1299,425 L 1300,425 L 1301,424 L 1302,424 L 1303,423 L 1304,423 L 1304,422 L 1306,420 L 1306,419 L 1307,418 L 1307,416 L 1308,415 L 1308,407 L 1307,406 L 1307,405 L 1306,404 L 1306,403 L 1304,401 L 1304,400 L 1299,395 L 1299,394 L 1300,393 L 1302,393 L 1303,392 L 1304,392 L 1305,391 L 1307,391 L 1308,390 L 1309,390 L 1310,389 L 1312,389 L 1313,388 L 1314,388 L 1315,387 L 1317,387 L 1318,386 L 1319,386 L 1320,385 L 1321,385 L 1322,384 L 1324,384 L 1325,383 L 1326,383 L 1327,382 L 1328,382 L 1329,381 L 1330,381 L 1331,380 L 1332,380 L 1333,379 L 1335,379 L 1336,378 L 1337,378 L 1338,377 L 1339,377 L 1340,376 L 1341,376 L 1342,375 L 1343,375 L 1344,374 L 1345,374 L 1346,373 L 1347,373 L 1348,372 L 1349,372 L 1350,371 L 1351,371 L 1352,370 L 1353,370 L 1354,369 L 1355,369 L 1356,368 L 1358,368 L 1359,367 L 1360,367 L 1361,366 L 1362,366 L 1363,365 L 1364,365 L 1365,364 L 1366,364 L 1367,363 L 1369,363 L 1370,362 L 1371,362 L 1372,361 L 1373,361 L 1374,360 L 1375,360 L 1376,359 L 1377,359 L 1378,358 L 1379,358 L 1380,357 L 1381,357 L 1382,356 L 1384,356 L 1385,355 L 1386,355 L 1387,354 L 1388,354 L 1389,353 L 1391,353 L 1392,352 L 1393,352 L 1394,351 L 1396,351 L 1397,350 L 1399,350 L 1400,349 L 1402,349 L 1403,348 L 1405,348 L 1406,347 L 1408,347 L 1409,346 L 1411,346 L 1412,345 L 1424,345 L 1425,346 L 1425,347 L 1424,348 L 1424,349 L 1423,350 L 1423,355 L 1422,356 L 1423,357 L 1423,360 L 1424,361 L 1424,362 L 1426,362 L 1427,363 L 1428,363 L 1429,362 L 1432,362 L 1433,361 L 1435,361 L 1436,360 L 1437,360 L 1438,359 L 1440,359 L 1441,358 L 1443,358 L 1444,357 L 1445,357 L 1446,356 L 1449,356 L 1450,355 L 1452,355 L 1453,354 L 1457,354 L 1458,353 L 1482,353 L 1483,354 L 1487,354 L 1488,355 L 1490,355 L 1491,356 L 1493,356 L 1494,357 L 1495,357 L 1496,358 L 1498,358 L 1499,359 L 1500,359 L 1501,360 L 1502,360 L 1503,361 L 1504,361 L 1506,363 L 1507,363 L 1509,365 L 1510,365 L 1518,373 L 1518,374 L 1519,375 L 1519,377 L 1520,378 L 1520,381 L 1521,382 L 1521,387 L 1520,388 L 1520,391 L 1519,392 L 1519,393 L 1518,394 L 1518,395 L 1516,397 L 1516,398 L 1509,405 L 1508,405 L 1507,406 L 1506,406 L 1505,407 L 1504,407 L 1503,408 L 1502,408 L 1501,409 L 1498,409 L 1497,410 L 1486,410 L 1485,409 L 1482,409 L 1480,407 L 1479,407 L 1475,403 L 1475,402 L 1473,400 L 1473,399 L 1474,398 L 1474,397 L 1475,396 L 1475,395 L 1480,390 L 1481,390 L 1482,389 L 1488,389 L 1489,390 L 1488,391 L 1488,392 L 1487,393 L 1487,394 L 1486,395 L 1486,396 L 1485,397 L 1485,398 L 1484,399 L 1484,402 L 1486,404 L 1488,404 L 1489,405 L 1492,405 L 1493,404 L 1496,404 L 1497,403 L 1498,403 L 1500,401 L 1501,401 L 1505,397 L 1505,396 L 1506,395 L 1506,394 L 1507,393 L 1507,390 L 1508,389 L 1508,385 L 1507,384 L 1507,381 L 1506,380 L 1506,379 L 1503,376 L 1503,375 L 1502,375 L 1499,372 L 1497,372 L 1496,371 L 1495,371 L 1494,370 L 1491,370 L 1490,369 L 1474,369 L 1473,370 L 1470,370 L 1469,371 L 1467,371 L 1466,372 L 1465,372 L 1464,373 L 1463,373 L 1462,374 L 1461,374 L 1460,375 L 1459,375 L 1457,377 L 1456,377 L 1449,384 L 1449,385 L 1446,388 L 1446,389 L 1445,390 L 1445,392 L 1444,393 L 1444,404 L 1445,405 L 1445,408 L 1446,409 L 1446,411 L 1447,412 L 1447,413 L 1449,415 L 1449,416 L 1458,425 L 1459,425 L 1461,427 L 1462,427 L 1464,429 L 1465,429 L 1466,430 L 1467,430 L 1468,431 L 1469,431 L 1470,432 L 1472,432 L 1473,433 L 1475,433 L 1476,434 L 1479,434 L 1480,435 L 1490,435 L 1491,436 L 1501,436 L 1502,435 L 1510,435 L 1511,434 L 1514,434 L 1515,433 L 1517,433 L 1518,432 L 1520,432 L 1522,430 L 1523,430 L 1524,429 L 1525,429 L 1526,428 L 1527,428 L 1529,426 L 1530,426 L 1537,419 L 1538,419 L 1543,414 L 1544,414 L 1557,401 L 1558,401 L 1560,399 L 1561,399 L 1562,398 L 1564,398 L 1566,396 L 1567,396 L 1572,391 L 1572,390 L 1573,389 L 1573,388 L 1574,387 L 1574,380 L 1573,379 L 1573,375 L 1572,374 L 1572,371 L 1571,370 L 1571,368 L 1570,367 L 1570,365 L 1569,364 L 1569,362 L 1568,361 L 1568,360 L 1567,359 L 1567,358 L 1566,357 L 1566,356 L 1565,355 L 1565,353 L 1564,352 L 1564,351 L 1563,350 L 1563,349 L 1561,347 L 1561,346 L 1560,345 L 1560,344 L 1555,339 L 1555,338 L 1547,330 L 1546,330 L 1542,326 L 1541,326 L 1539,324 L 1538,324 L 1536,322 L 1535,322 L 1533,320 L 1532,320 L 1531,319 L 1530,319 L 1528,317 L 1527,317 L 1526,316 L 1525,316 L 1524,315 L 1523,315 L 1522,314 L 1521,314 L 1519,312 L 1517,312 L 1516,311 L 1515,311 L 1514,310 L 1513,310 L 1512,309 L 1508,309 L 1507,308 L 1506,308 L 1505,307 L 1504,307 L 1502,305 L 1501,305 L 1500,304 L 1499,304 L 1498,303 L 1497,303 L 1496,302 L 1493,302 L 1492,301 L 1483,301 L 1482,300 L 1481,300 L 1480,301 L 1479,300 L 1478,300 L 1477,299 L 1476,299 L 1473,296 L 1472,296 L 1466,290 L 1465,290 L 1461,286 L 1460,286 L 1452,278 L 1451,278 L 1445,272 L 1444,272 L 1439,267 L 1438,267 L 1434,263 L 1433,263 L 1429,259 L 1428,259 L 1424,255 L 1423,255 L 1420,252 L 1419,252 L 1417,250 L 1416,250 L 1414,248 L 1413,248 L 1412,247 L 1411,247 L 1409,245 L 1408,245 L 1407,244 L 1406,244 L 1405,243 L 1404,243 L 1403,242 L 1402,242 L 1401,241 L 1400,241 L 1399,240 L 1398,240 L 1397,239 L 1396,239 L 1395,238 L 1393,238 L 1392,237 L 1390,237 L 1389,236 L 1388,236 L 1387,235 L 1385,235 L 1384,234 L 1382,234 L 1381,233 L 1378,233 L 1377,232 L 1375,232 L 1374,231 L 1370,231 L 1369,230 L 1366,230 L 1365,229 L 1359,229 L 1358,228 L 1352,228 L 1351,227 L 1335,227 L 1334,228 L 1328,228 L 1327,229 L 1317,229 L 1315,227 L 1315,226 L 1312,223 L 1312,222 L 1306,216 L 1305,216 L 1303,214 L 1302,214 L 1301,213 L 1300,213 L 1299,212 L 1297,212 L 1296,211 L 1294,211 L 1293,210 L 1292,210 L 1291,209 L 1289,209 L 1288,208 L 1287,208 L 1286,207 L 1284,207 L 1283,206 L 1282,206 L 1281,205 L 1280,205 L 1279,204 L 1278,204 L 1277,203 L 1276,203 L 1275,202 L 1273,202 L 1272,201 L 1271,201 L 1270,200 L 1269,200 L 1267,198 L 1266,198 L 1264,196 L 1263,196 L 1262,195 L 1261,195 L 1258,192 L 1257,192 L 1247,182 L 1247,181 L 1246,180 L 1246,179 L 1245,178 L 1245,177 L 1244,176 L 1244,175 L 1242,173 L 1242,172 L 1240,170 L 1240,169 L 1235,164 L 1235,163 L 1224,152 L 1223,152 L 1218,147 L 1217,147 L 1215,145 L 1214,145 L 1212,143 L 1211,143 L 1210,142 L 1209,142 L 1208,141 L 1207,141 L 1206,140 L 1205,140 L 1204,139 L 1203,139 L 1202,138 L 1201,138 L 1200,137 L 1199,137 L 1198,136 L 1197,136 L 1196,135 L 1194,135 L 1193,134 L 1189,134 L 1188,133 L 1185,133 L 1184,132 L 1178,132 L 1177,131 L 1172,131 L 1171,130 L 1164,130 L 1163,129 L 1106,129 L 1105,130 L 1102,130 L 1101,129 L 1059,129 L 1058,128 L 1047,128 L 1046,127 L 1048,125 L 1049,125 L 1050,124 L 1050,123 L 1052,121 L 1052,120 L 1053,119 L 1053,111 L 1052,110 L 1052,109 L 1050,107 L 1050,106 L 1049,106 L 1047,104 L 1046,104 L 1045,103 L 1044,103 L 1043,102 L 1040,102 L 1039,101 Z" fill="black" /></svg>